<svg width="58" height="58" viewBox="0 0 58 58" fill="none" xmlns="http://www.w3.org/2000/svg" xmlns:xlink="http://www.w3.org/1999/xlink">
<path d="M9.667,7.667C8.562,7.667 7.667,8.562 7.667,9.667C7.667,10.772 8.562,11.667 9.667,11.667L9.667,7.667ZM19.173,17.619L17.532,18.761L19.173,17.619ZM21.036,19.073L20.326,20.943L21.036,19.073ZM17.674,12.697L15.734,13.182L17.674,12.697ZM16.586,10.091L15.355,11.667L16.586,10.091ZM9.667,11.667L13.794,11.667L13.794,7.667L9.667,7.667L9.667,11.667ZM15.734,13.182L16.221,15.13L20.101,14.16L19.614,12.212L15.734,13.182ZM16.221,15.13C16.575,16.547 16.851,17.784 17.532,18.761L20.815,16.476C20.656,16.248 20.537,15.904 20.101,14.16L16.221,15.13ZM24.167,17.334C22.369,17.334 22.006,17.302 21.746,17.203L20.326,20.943C21.439,21.365 22.705,21.334 24.167,21.334L24.167,17.334ZM17.532,18.761C18.222,19.753 19.196,20.513 20.326,20.943L21.746,17.203C21.37,17.06 21.045,16.807 20.815,16.476L17.532,18.761ZM13.794,11.667C14.592,11.667 15.015,11.67 15.311,11.706C15.555,11.735 15.478,11.763 15.355,11.667L17.817,8.514C17.152,7.995 16.429,7.811 15.786,7.734C15.197,7.664 14.495,7.667 13.794,7.667L13.794,11.667ZM19.614,12.212C19.444,11.531 19.277,10.849 19.066,10.295C18.836,9.69 18.482,9.034 17.817,8.514L15.355,11.667C15.232,11.571 15.241,11.49 15.328,11.719C15.434,11.998 15.54,12.407 15.734,13.182L19.614,12.212Z" fill="#939393"/>
<path d="M43.5,43.083C44.605,43.083 45.5,42.188 45.5,41.083C45.5,39.978 44.605,39.083 43.5,39.083L43.5,43.083ZM33.833,35.833C34.938,35.833 35.833,34.938 35.833,33.833C35.833,32.728 34.938,31.833 33.833,31.833L33.833,35.833ZM15.275,39.103L17.275,39.083L15.275,39.103ZM43.5,39.083L18.248,39.083L18.248,43.083L43.5,43.083L43.5,39.083ZM20.811,35.833L33.833,35.833L33.833,31.833L20.811,31.833L20.811,35.833ZM17.583,38.16C17.919,37.15 17.999,36.946 18.085,36.803L14.656,34.744C14.289,35.355 14.063,36.07 13.788,36.895L17.583,38.16ZM20.811,31.833C19.941,31.833 19.192,31.821 18.496,31.976L19.365,35.881C19.528,35.845 19.746,35.833 20.811,35.833L20.811,31.833ZM18.085,36.803C18.367,36.333 18.83,36 19.365,35.881L18.496,31.976C16.891,32.334 15.502,33.334 14.656,34.744L18.085,36.803ZM18.248,39.083C17.79,39.083 17.525,39.082 17.333,39.072C17.143,39.062 17.172,39.048 17.275,39.083L15.972,42.865C16.391,43.009 16.796,43.049 17.122,43.067C17.445,43.084 17.834,43.083 18.248,43.083L18.248,39.083ZM13.788,36.895C13.657,37.288 13.533,37.657 13.447,37.969C13.361,38.283 13.271,38.68 13.275,39.123L17.275,39.083C17.276,39.192 17.253,39.214 17.304,39.031C17.355,38.846 17.438,38.594 17.583,38.16L13.788,36.895ZM17.275,39.083L17.275,39.083L13.275,39.123C13.292,40.815 14.372,42.313 15.972,42.865L17.275,39.083Z" fill="#939393"/>
<path d="M38.611,33.833L22.722,33.833C20.766,33.833 19.098,32.419 18.776,30.491L17.499,22.826C17.194,20.998 18.604,19.333 20.458,19.333L45.097,19.333C46.584,19.333 47.551,20.898 46.886,22.227L42.189,31.622C41.511,32.977 40.126,33.833 38.611,33.833Z" fill="#939393" stroke="#939393" stroke-width="2" stroke-miterlimit="3.999327" stroke-linecap="round"/>
<path d="M43.5,48.334C43.5,49.668 42.418,50.75 41.083,50.75C39.749,50.75 38.667,49.668 38.667,48.334C38.667,46.999 39.749,45.917 41.083,45.917C42.418,45.917 43.5,46.999 43.5,48.334Z" fill="#939393"/>
<path d="M24.167,48.334C24.167,49.668 23.085,50.75 21.75,50.75C20.415,50.75 19.333,49.668 19.333,48.334C19.333,46.999 20.415,45.917 21.75,45.917C23.085,45.917 24.167,46.999 24.167,48.334Z" fill="#939393"/>
</svg>
