<svg width="48" height="48" viewBox="0 0 48 48" fill="none" xmlns="http://www.w3.org/2000/svg" xmlns:xlink="http://www.w3.org/1999/xlink">
<circle cx="24" cy="24" r="14" stroke="#939393" stroke-width="2" stroke-miterlimit="3.999327"/>
<path d="M12.447,8.204C13.514,7.919 14.147,6.822 13.861,5.755C13.575,4.688 12.479,4.055 11.412,4.341L12.447,8.204ZM8.343,8.343L9.757,9.757L8.343,8.343ZM4.341,11.412C4.055,12.479 4.688,13.575 5.755,13.861C6.822,14.147 7.919,13.514 8.204,12.447L4.341,11.412ZM11.412,4.341C9.716,4.795 8.17,5.688 6.929,6.929L9.757,9.757C10.502,9.013 11.43,8.477 12.447,8.204L11.412,4.341ZM6.929,6.929C5.688,8.17 4.795,9.716 4.341,11.412L8.204,12.447C8.477,11.43 9.013,10.502 9.757,9.757L6.929,6.929Z" fill="#939393"/>
<path d="M32.447,8.204C33.514,7.919 34.147,6.822 33.861,5.755C33.575,4.688 32.479,4.055 31.412,4.341L32.447,8.204ZM28.343,8.343L29.757,9.757L28.343,8.343ZM24.341,11.412C24.055,12.479 24.688,13.575 25.755,13.861C26.822,14.147 27.919,13.514 28.204,12.447L24.341,11.412ZM31.412,4.341C29.716,4.795 28.17,5.688 26.929,6.929L29.757,9.757C30.502,9.013 31.43,8.477 32.447,8.204L31.412,4.341ZM26.929,6.929C25.688,8.17 24.795,9.716 24.341,11.412L28.204,12.447C28.477,11.43 29.013,10.502 29.757,9.757L26.929,6.929Z" transform="rotate(360 34 14)" fill="#939393"/>
<path d="M26,16C26,14.895 25.105,14 24,14C22.895,14 22,14.895 22,16L26,16ZM30,26C31.105,26 32,25.105 32,24C32,22.895 31.105,22 30,22L30,26ZM22,16L22,23.5L26,23.5L26,16L22,16ZM24.5,26L30,26L30,22L24.5,22L24.5,26ZM22,23.5C22,24.881 23.119,26 24.5,26L24.5,22C25.328,22 26,22.672 26,23.5L22,23.5Z" fill="#939393"/>
</svg>
