<svg width="54" height="80" viewBox="0 0 54 80" fill="none" xmlns="http://www.w3.org/2000/svg" xmlns:xlink="http://www.w3.org/1999/xlink">
<path d="M19.167,36.25C19.167,34.073 19.167,32.984 19.579,32.148C19.969,31.358 20.608,30.719 21.398,30.33C22.234,29.917 23.323,29.917 25.5,29.917L44.5,29.917C46.677,29.917 47.766,29.917 48.603,30.33C49.392,30.719 50.032,31.358 50.421,32.148C50.833,32.984 50.833,34.073 50.833,36.25L50.833,36.25C50.833,36.795 50.833,37.067 50.73,37.276C50.633,37.473 50.473,37.633 50.276,37.731C50.067,37.834 49.794,37.834 49.25,37.834L20.75,37.834C20.206,37.834 19.934,37.834 19.724,37.731C19.527,37.633 19.367,37.473 19.27,37.276C19.167,37.067 19.167,36.795 19.167,36.25L19.167,36.25Z" fill="#939393"/>
<path d="M19.167,49C19.167,45.228 19.167,43.343 20.338,42.171C21.51,41 23.396,41 27.167,41L42.833,41C46.605,41 48.49,41 49.662,42.171C50.833,43.343 50.833,45.228 50.833,49L50.833,54.833C50.833,55.776 50.833,56.247 50.541,56.54C50.248,56.833 49.776,56.833 48.833,56.833L21.167,56.833C20.224,56.833 19.753,56.833 19.46,56.54C19.167,56.247 19.167,55.776 19.167,54.833L19.167,49Z" fill="#939393"/>
<line x1="29.083" y1="26.75" x2="29.083" y2="31.5" stroke="#939393" stroke-width="2" stroke-miterlimit="3.999327" stroke-linecap="round"/>
<line x1="44.917" y1="26.75" x2="44.917" y2="31.5" stroke="#939393" stroke-width="2" stroke-miterlimit="3.999327" stroke-linecap="round"/>
<line x1="1" y1="0" x2="1" y2="80" stroke="#E1E1E1" stroke-width="1" stroke-miterlimit="3.999327"/>
</svg>
