<svg width="48" height="48" viewBox="0 0 48 48" fill="none" xmlns="http://www.w3.org/2000/svg" xmlns:xlink="http://www.w3.org/1999/xlink">
<path d="M8.304,25.531L6.457,26.296L8.304,25.531ZM10.469,27.696L9.704,29.543L10.469,27.696ZM25.531,8.304L26.296,6.457L25.531,8.304ZM27.696,10.469L29.543,9.704L27.696,10.469ZM16,10L22,10L22,6L16,6L16,10ZM10,22L10,16L6,16L6,22L10,22ZM6,22C6,22.905 5.999,23.683 6.043,24.325C6.088,24.984 6.187,25.644 6.457,26.296L10.152,24.765C10.118,24.682 10.065,24.508 10.033,24.052C10.001,23.579 10,22.959 10,22L6,22ZM14,26C13.041,26 12.421,25.999 11.948,25.967C11.492,25.935 11.318,25.882 11.235,25.848L9.704,29.543C10.356,29.813 11.016,29.912 11.675,29.957C12.317,30.001 13.095,30 14,30L14,26ZM6.457,26.296C7.066,27.766 8.234,28.934 9.704,29.543L11.235,25.848C10.745,25.645 10.355,25.255 10.152,24.765L6.457,26.296ZM22,10C22.959,10 23.579,10.001 24.052,10.033C24.508,10.065 24.682,10.118 24.765,10.152L26.296,6.457C25.644,6.187 24.984,6.088 24.325,6.043C23.683,5.999 22.905,6 22,6L22,10ZM30,14C30,13.095 30.001,12.317 29.957,11.675C29.912,11.016 29.813,10.356 29.543,9.704L25.848,11.235C25.882,11.318 25.935,11.492 25.967,11.948C25.999,12.421 26,13.041 26,14L30,14ZM24.765,10.152C25.255,10.355 25.645,10.745 25.848,11.235L29.543,9.704C28.934,8.234 27.766,7.066 26.296,6.457L24.765,10.152ZM16,6C14.171,6 12.598,5.996 11.344,6.164C10.033,6.341 8.777,6.738 7.757,7.757L10.586,10.586C10.738,10.434 11.01,10.245 11.877,10.129C12.802,10.004 14.058,10 16,10L16,6ZM10,16C10,14.058 10.004,12.802 10.129,11.877C10.245,11.01 10.434,10.738 10.586,10.586L7.757,7.757C6.738,8.777 6.341,10.033 6.164,11.344C5.996,12.598 6,14.171 6,16L10,16Z" fill="#007CEE"/>
<rect  x="18" y="18" width="20" height="20" rx="4" stroke="#007CEE" stroke-width="2" stroke-miterlimit="3.999327"/>
</svg>
