<svg width="36" height="36" viewBox="0 0 36 36" fill="none" xmlns="http://www.w3.org/2000/svg" xmlns:xlink="http://www.w3.org/1999/xlink">
<path d="M8,3C6.895,3 6,3.895 6,5L6,7L30,7L30,5C30,3.895 29.105,3 28,3L8,3ZM29.262,11L6.738,11C6.918,11.253 7.128,11.487 7.366,11.695L15.366,18.695C16.874,20.015 19.126,20.015 20.634,18.695L28.634,11.695C28.872,11.487 29.082,11.253 29.262,11Z" clip-rule="evenodd" fill-rule="evenodd" fill="#007CEE"/>
<path d="M22,23.91L22,15L14,15L14,26.91L22,23.91Z" clip-rule="evenodd" fill-rule="evenodd" fill="#007CEE"/>
</svg>
