<svg width="2390" height="2390" viewBox="0 0 2390 2390" fill="none" xmlns="http://www.w3.org/2000/svg" xmlns:xlink="http://www.w3.org/1999/xlink">
<path d="M1194.007,725.146C935.475,725.146 725.139,935.454 725.139,1193.986C725.139,1452.516 935.475,1662.854 1194.007,1662.854C1452.539,1662.854 1662.859,1452.516 1662.859,1193.986C1662.859,935.454 1452.539,725.146 1194.007,725.146ZM1164.453,785.751L1164.453,1037.242C1100.121,1049.348 1049.357,1100.11 1037.249,1164.432L785.743,1164.432C800.288,962.108 962.099,800.293 1164.453,785.751ZM1164.453,1602.248C962.097,1587.706 800.285,1425.894 785.743,1223.538L1037.247,1223.538C1049.355,1287.884 1100.117,1338.648 1164.453,1350.756L1164.453,1602.248ZM1093.499,1193.986C1093.499,1138.572 1138.581,1093.494 1194.007,1093.494C1249.433,1093.494 1294.513,1138.572 1294.513,1193.986C1294.513,1249.426 1249.433,1294.506 1194.007,1294.506C1138.581,1294.506 1093.499,1249.426 1093.499,1193.986ZM1223.559,1602.248L1223.559,1350.756C1287.895,1338.648 1338.659,1287.884 1350.767,1223.538L1602.257,1223.538C1587.713,1425.894 1425.903,1587.706 1223.559,1602.248ZM1350.765,1164.432C1338.657,1100.11 1287.893,1049.348 1223.559,1037.242L1223.559,785.751C1425.899,800.293 1587.711,962.108 1602.257,1164.432L1350.765,1164.432Z" fill="#FF0000"/>
<path d="M2227.15,1034.444C2227.13,1034.444 2227.09,1034.444 2227.07,1034.444L2002.25,1047.288C1980.978,929.774 1934.724,820.906 1869.054,726.392L2038.55,575.158C2068.59,545.116 2085.15,505.056 2085.15,462.316C2085.15,419.572 2068.59,379.486 2038.55,349.44C1976.298,287.19 1875.042,287.246 1811.664,350.654L1661.588,518.926C1567.084,453.266 1458.226,407.018 1340.728,385.74L1353.62,159.221C1353.62,71.226 1282.016,-0.378 1194.006,-0.378C1105.996,-0.378 1034.394,71.226 1034.436,160.895L1047.278,385.74C929.778,407.018 820.918,453.274 726.412,518.94L575.18,349.44C512.956,287.218 411.7,287.19 349.448,349.44C319.404,379.486 302.852,419.572 302.852,462.316C302.852,505.056 319.404,545.116 350.674,576.312L518.948,726.402C453.284,820.914 407.032,929.778 385.754,1047.288L159.242,1034.388C71.232,1034.388 -0.37,1105.99 -0.37,1193.986C-0.37,1281.982 71.174,1353.556 160.844,1353.556C160.858,1353.556 160.902,1353.556 160.931,1353.556L385.76,1340.714C407.04,1458.212 453.29,1567.066 518.952,1661.568L349.448,1812.812C319.404,1842.858 302.852,1882.944 302.852,1925.684C302.852,1968.428 319.404,2008.482 349.448,2038.522C379.492,2068.582 419.578,2085.142 462.32,2085.142C505.064,2085.142 545.136,2068.582 576.334,2037.322L726.424,1869.04C820.93,1934.7 929.788,1980.954 1047.284,2002.222L1034.394,2228.742C1034.394,2316.782 1105.996,2388.382 1194.006,2388.382C1282.016,2388.382 1353.62,2316.782 1353.576,2227.082L1340.736,2002.222C1458.228,1980.954 1567.078,1934.704 1661.578,1869.046L1812.82,2038.522C1842.862,2068.582 1882.95,2085.142 1925.692,2085.142C1968.434,2085.142 2008.51,2068.582 2038.55,2038.522C2068.59,2008.482 2085.15,1968.428 2085.15,1925.684C2085.15,1882.944 2068.59,1842.858 2037.33,1811.658L1869.058,1661.576C1934.72,1567.072 1980.972,1458.212 2002.25,1340.714L2228.75,1353.612C2316.77,1353.612 2388.37,1282.01 2388.37,1193.986C2388.37,1106.02 2316.83,1034.444 2227.15,1034.444ZM159.242,1294.508C103.815,1294.508 58.735,1249.428 58.735,1193.986C58.735,1138.574 103.815,1093.494 157.553,1093.436L377.152,1105.976C374.056,1134.904 372.378,1164.252 372.378,1193.986C372.378,1223.734 374.058,1253.088 377.156,1282.024L159.242,1294.508ZM1854.61,391.232C1893.8,352.038 1957.57,352.038 1996.762,391.232C2015.63,410.108 2026.05,435.358 2026.05,462.316C2026.05,489.27 2015.63,514.494 1997.988,532.214L1833.502,678.926C1796.562,633.154 1754.842,591.43 1709.068,554.49L1854.61,391.232ZM1194.006,58.729C1249.432,58.729 1294.514,103.81 1294.556,157.548L1282.014,377.132C1253.088,374.038 1223.742,372.354 1194.006,372.354C1164.27,372.354 1134.922,374.038 1105.994,377.132L1093.5,159.221C1093.5,103.81 1138.58,58.729 1194.006,58.729ZM391.238,533.37C372.362,514.494 361.958,489.27 361.958,462.316C361.958,435.358 372.362,410.108 391.238,391.232C430.444,352.066 494.212,352.01 532.236,390.018L678.93,554.502C633.16,591.444 591.442,633.162 554.502,678.938L391.238,533.37ZM533.39,1996.74C495.582,2034.482 428.988,2034.462 391.238,1996.74C372.362,1977.866 361.958,1952.642 361.958,1925.684C361.958,1898.73 372.362,1873.476 390.012,1855.758L554.506,1709.036C591.446,1754.814 633.168,1796.536 678.942,1833.476L533.39,1996.74ZM1194.006,2329.262C1138.58,2329.262 1093.5,2284.182 1093.456,2230.422L1105.998,2010.842C1134.924,2013.942 1164.272,2015.622 1194.006,2015.622C1223.744,2015.622 1253.092,2013.942 1282.022,2010.842L1294.514,2228.742C1294.514,2284.182 1249.432,2329.262 1194.006,2329.262ZM1996.762,1854.602C2015.63,1873.478 2026.05,1898.73 2026.05,1925.684C2026.05,1952.642 2015.63,1977.866 1996.762,1996.74C1977.872,2015.622 1952.632,2026.042 1925.692,2026.042C1898.736,2026.042 1873.498,2015.622 1855.762,1997.952L1709.06,1833.486C1754.838,1796.542 1796.562,1754.82 1833.504,1709.046L1996.762,1854.602ZM1194.006,1956.51C773.554,1956.51 431.484,1614.454 431.484,1193.986C431.484,773.516 773.554,431.46 1194.006,431.46C1614.46,431.46 1956.53,773.516 1956.53,1193.986C1956.53,1614.454 1614.46,1956.51 1194.006,1956.51ZM2230.45,1294.564L2010.85,1282.024C2013.95,1253.086 2015.63,1223.734 2015.63,1193.986C2015.63,1164.25 2013.95,1134.9 2010.87,1105.976L2228.75,1093.494C2284.19,1093.494 2329.27,1138.574 2329.27,1193.986C2329.27,1249.428 2284.19,1294.508 2230.45,1294.564Z" fill="#FFFFFF"/>
<path d="M1723.856,945.699C1731.316,961.601 1738.098,977.964 1744.043,994.329C1748.401,1006.335 1759.743,1013.781 1771.821,1013.781C1775.17,1013.781 1778.576,1013.204 1781.909,1011.992C1797.248,1006.422 1805.17,989.48 1799.6,974.127C1793.063,956.118 1785.574,938.109 1777.363,920.591C1770.437,905.841 1752.846,899.492 1738.07,906.391C1723.294,913.317 1716.93,930.924 1723.856,945.699Z" fill="#FF0000"/>
<path d="M1194.006,549.877C1177.685,549.877 1164.453,563.098 1164.453,579.429C1164.453,595.765 1177.685,608.982 1194.006,608.982C1373.995,608.982 1541.343,690.083 1653.149,831.441C1658.977,838.827 1667.621,842.665 1676.337,842.665C1682.759,842.665 1689.225,840.591 1694.649,836.289C1707.463,826.159 1709.627,807.573 1699.499,794.787C1576.437,639.143 1392.177,549.877 1194.006,549.877Z" fill="#FF0000"/>
<path d="M613.116,1263.683C610.39,1240.798 609.003,1217.364 609.003,1193.987C609.003,1177.651 595.77,1164.432 579.451,1164.432C563.13,1164.432 549.896,1177.651 549.896,1193.987C549.896,1219.671 551.413,1245.472 554.414,1270.666C556.203,1285.704 568.975,1296.73 583.722,1296.73C584.891,1296.73 586.074,1296.673 587.258,1296.528C603.462,1294.594 615.035,1279.873 613.116,1263.683Z" fill="#FF0000"/>
<path d="M1020.597,1752.87C843.857,1698.122 702.064,1561.005 641.27,1386.141C635.902,1370.699 619.034,1362.474 603.665,1367.928C588.239,1373.267 580.085,1390.123 585.454,1405.534C652.367,1598.092 808.503,1749.03 1003.109,1809.32C1006.023,1810.216 1008.967,1810.648 1011.867,1810.648C1024.481,1810.648 1036.153,1802.508 1040.079,1789.84C1044.913,1774.254 1036.183,1757.69 1020.597,1752.87Z" fill="#FF0000"/>
<path d="M1194.006,1778.988C1179.879,1778.988 1165.881,1778.497 1152.013,1777.516C1135.636,1776.217 1121.58,1788.628 1120.426,1804.876C1119.273,1821.153 1131.523,1835.294 1147.801,1836.449C1163.054,1837.545 1178.466,1838.094 1194.006,1838.094C1210.327,1838.094 1223.559,1824.876 1223.559,1808.541C1223.559,1792.205 1210.327,1778.988 1194.006,1778.988Z" fill="#FF0000"/>
</svg>
