<svg width="26" height="30" viewBox="0 0 26 30" fill="none" xmlns="http://www.w3.org/2000/svg" xmlns:xlink="http://www.w3.org/1999/xlink">
<path d="M17.2,27.4C16.869,27.842 16.958,28.469 17.4,28.8C17.842,29.131 18.469,29.042 18.8,28.6L17.2,27.4ZM2.633,1.226C2.206,0.876 1.576,0.939 1.226,1.367C0.876,1.794 0.939,2.424 1.367,2.774L2.633,1.226ZM22.85,21.534L23.65,22.134L22.85,21.534ZM18.8,28.6L23.65,22.134L22.05,20.934L17.2,27.4L18.8,28.6ZM23.149,18.012L2.633,1.226L1.367,2.774L21.883,19.56L23.149,18.012ZM23.65,22.134C24.614,20.848 24.394,19.03 23.149,18.012L21.883,19.56C22.298,19.899 22.371,20.505 22.05,20.934L23.65,22.134Z" transform="rotate(180 13 15)" fill="#FFFFFF"/>
</svg>
