<svg width="46" height="48" viewBox="0 0 46 48" fill="none" xmlns="http://www.w3.org/2000/svg" xmlns:xlink="http://www.w3.org/1999/xlink">
<path d="M45.08,24.523C45.08,22.892 44.934,21.324 44.662,19.818L23,19.818L23,28.715L35.378,28.715C34.845,31.59 33.225,34.026 30.789,35.657L30.789,41.428L38.222,41.428C42.571,37.424 45.08,31.527 45.08,24.523Z" clip-rule="evenodd" fill-rule="evenodd" fill="#4285F4"/>
<path d="M23,47C29.21,47 34.416,44.941 38.222,41.428L30.788,35.657C28.729,37.037 26.094,37.852 23,37.852C17.009,37.852 11.939,33.806 10.13,28.37L2.446,28.37L2.446,34.329C6.231,41.846 14.009,47 23,47Z" clip-rule="evenodd" fill-rule="evenodd" fill="#34A853"/>
<path d="M10.13,28.37C9.67,26.99 9.409,25.516 9.409,24C9.409,22.484 9.67,21.01 10.13,19.63L10.13,13.671L2.446,13.671C0.889,16.776 0,20.289 0,24C0,27.711 0.889,31.224 2.446,34.329L10.13,28.37Z" clip-rule="evenodd" fill-rule="evenodd" fill="#FBBC05"/>
<path d="M23,10.148C26.377,10.148 29.408,11.308 31.792,13.587L38.389,6.99C34.406,3.279 29.199,1 23,1C14.009,1 6.231,6.154 2.446,13.671L10.13,19.63C11.939,14.194 17.009,10.148 23,10.148Z" clip-rule="evenodd" fill-rule="evenodd" fill="#EA4335"/>
</svg>
