<svg width="48" height="46" viewBox="0 0 48 46" fill="none" xmlns="http://www.w3.org/2000/svg" xmlns:xlink="http://www.w3.org/1999/xlink">
<path d="M47,21.86C47,34.563 36.703,44.86 24,44.86C11.297,44.86 1,34.563 1,21.86C1,10.38 9.411,0.865 20.406,-0.86L20.406,15.212L14.566,15.212L14.566,21.86L20.406,21.86L20.406,26.928C20.406,32.692 23.84,35.876 29.094,35.876C31.61,35.876 34.242,35.427 34.242,35.427L34.242,29.767L31.342,29.767C28.485,29.767 27.594,27.994 27.594,26.175L27.594,21.86L33.973,21.86L32.953,15.212L27.594,15.212L27.594,-0.86C38.589,0.865 47,10.38 47,21.86Z" fill="#FFFFFF"/>
</svg>
