<svg width="40" height="48" viewBox="0 0 40 48" fill="none" xmlns="http://www.w3.org/2000/svg" xmlns:xlink="http://www.w3.org/1999/xlink">
<path d="M38.561,36.848C37.865,38.455 37.042,39.934 36.088,41.294C34.787,43.149 33.723,44.432 32.902,45.145C31.63,46.315 30.267,46.914 28.808,46.948C27.76,46.948 26.496,46.65 25.026,46.045C23.55,45.443 22.194,45.145 20.954,45.145C19.653,45.145 18.259,45.443 16.767,46.045C15.273,46.65 14.069,46.965 13.149,46.996C11.749,47.056 10.354,46.439 8.962,45.145C8.073,44.37 6.962,43.041 5.63,41.158C4.201,39.148 3.026,36.817 2.106,34.159C1.121,31.288 0.626,28.509 0.626,25.817C0.626,22.735 1.293,20.076 2.627,17.848C3.675,16.058 5.07,14.646 6.816,13.61C8.562,12.573 10.449,12.045 12.48,12.012C13.592,12.012 15.05,12.355 16.861,13.031C18.668,13.709 19.828,14.053 20.336,14.053C20.716,14.053 22.005,13.651 24.189,12.849C26.255,12.106 27.998,11.798 29.427,11.92C33.297,12.232 36.204,13.758 38.138,16.506C34.677,18.603 32.965,21.541 32.999,25.309C33.03,28.244 34.095,30.686 36.187,32.626C37.136,33.526 38.195,34.221 39.373,34.716C39.118,35.457 38.848,36.166 38.561,36.848L38.561,36.848ZM29.685,1.92C29.685,4.221 28.845,6.369 27.169,8.357C25.148,10.72 22.702,12.086 20.051,11.871C20.017,11.595 19.997,11.304 19.997,10.999C19.997,8.791 20.959,6.427 22.666,4.494C23.518,3.516 24.602,2.702 25.917,2.053C27.229,1.414 28.47,1.061 29.637,1C29.671,1.308 29.685,1.615 29.685,1.92L29.685,1.92Z" fill="#FFFFFF"/>
</svg>
