<svg width="28" height="10" viewBox="0 0 28 10" fill="none" xmlns="http://www.w3.org/2000/svg" xmlns:xlink="http://www.w3.org/1999/xlink">
<path d="M26,10C27.105,10 28,9.105 28,8C28,6.895 27.105,6 26,6L26,10ZM18,4C19.105,4 20,3.105 20,2C20,0.895 19.105,0 18,0L18,4ZM3.192,4.46L1.346,3.689L3.192,4.46ZM6.589,2.011L6.442,0.016L6.589,2.011ZM4.552,7.988L4.33,9.975L4.552,7.988ZM2.819,5.583L0.863,5.165L2.819,5.583ZM26,6L5.102,6L5.102,10L26,10L26,6ZM7.223,4L18,4L18,0L7.223,0L7.223,4ZM4.878,5.69C4.991,5.351 5.016,5.281 5.037,5.23L1.346,3.689C1.254,3.91 1.176,4.148 1.084,4.425L4.878,5.69ZM7.223,0C6.93,0 6.68,-0.001 6.442,0.016L6.736,4.005C6.792,4.001 6.866,4 7.223,4L7.223,0ZM5.037,5.23C5.328,4.534 5.984,4.061 6.736,4.005L6.442,0.016C4.187,0.182 2.217,1.602 1.346,3.689L5.037,5.23ZM5.102,6C4.948,6 4.86,6 4.795,5.999C4.73,5.998 4.738,5.996 4.775,6L4.33,9.975C4.581,10.003 4.871,10 5.102,10L5.102,6ZM1.084,4.425C1.01,4.644 0.916,4.918 0.863,5.165L4.775,6C4.767,6.036 4.763,6.043 4.782,5.982C4.802,5.92 4.83,5.835 4.878,5.69L1.084,4.425ZM4.775,6L4.775,6L0.863,5.165C0.369,7.478 1.979,9.712 4.33,9.975L4.775,6Z" fill="#939393"/>
</svg>
