<svg width="24" height="10" viewBox="0 0 24 10" fill="none" xmlns="http://www.w3.org/2000/svg" xmlns:xlink="http://www.w3.org/1999/xlink">
<path d="M22,8.333C23.105,8.333 24,7.438 24,6.333C24,5.229 23.105,4.333 22,4.333L22,8.333ZM15.333,3.333C16.438,3.333 17.333,2.438 17.333,1.333C17.333,0.229 16.438,-0.667 15.333,-0.667L15.333,3.333ZM22,4.333L4.585,4.333L4.585,8.333L22,8.333L22,4.333ZM6.352,3.333L15.333,3.333L15.333,-0.667L6.352,-0.667L6.352,3.333ZM4.715,4.514C4.95,3.809 5.609,3.333 6.352,3.333L6.352,-0.667C3.888,-0.667 1.699,0.91 0.92,3.249L4.715,4.514ZM4.585,4.333C4.599,4.333 4.624,4.338 4.65,4.351C4.672,4.363 4.687,4.377 4.696,4.39C4.705,4.403 4.714,4.421 4.718,4.446C4.723,4.475 4.719,4.5 4.715,4.514L0.92,3.249C0.086,5.75 1.948,8.333 4.585,8.333L4.585,4.333Z" fill="#939393"/>
</svg>
