<svg width="48" height="48" viewBox="0 0 48 48" fill="none" xmlns="http://www.w3.org/2000/svg" xmlns:xlink="http://www.w3.org/1999/xlink">
<path d="M20,38L18.586,36.586L17.172,38L18.586,39.414L20,38ZM26.586,28.586L18.586,36.586L21.414,39.414L29.414,31.414L26.586,28.586ZM18.586,39.414L26.586,47.414L29.414,44.586L21.414,36.586L18.586,39.414Z" fill="#FFFFFF"/>
<path d="M34.392,30C33.84,30.957 34.168,32.18 35.124,32.732C36.081,33.284 37.304,32.957 37.856,32L34.392,30ZM37.88,22.173L39.863,21.912L37.88,22.173ZM33.899,14.101L35.314,12.686L33.899,14.101ZM25.827,10.12L26.088,8.137L25.827,10.12ZM17,11.876L16,10.144L17,11.876ZM11.066,18.642L9.218,17.877L11.066,18.642ZM10.477,27.623L8.545,28.141L10.477,27.623ZM15.477,35.107L14.26,36.694L15.477,35.107ZM24,40C25.105,40 26,39.105 26,38C26,36.895 25.105,36 24,36L24,40ZM37.856,32C39.617,28.95 40.323,25.404 39.863,21.912L35.897,22.434C36.242,25.053 35.713,27.712 34.392,30L37.856,32ZM39.863,21.912C39.403,18.42 37.804,15.177 35.314,12.686L32.485,15.515C34.353,17.383 35.553,19.815 35.897,22.434L39.863,21.912ZM35.314,12.686C32.823,10.196 29.58,8.597 26.088,8.137L25.566,12.103C28.185,12.447 30.617,13.647 32.485,15.515L35.314,12.686ZM26.088,8.137C22.596,7.677 19.05,8.383 16,10.144L18,13.608C20.288,12.287 22.947,11.758 25.566,12.103L26.088,8.137ZM16,10.144C12.95,11.905 10.566,14.623 9.218,17.877L12.913,19.408C13.924,16.967 15.712,14.928 18,13.608L16,10.144ZM9.218,17.877C7.87,21.131 7.634,24.739 8.545,28.141L12.409,27.106C11.725,24.554 11.903,21.848 12.913,19.408L9.218,17.877ZM8.545,28.141C9.457,31.543 11.466,34.55 14.26,36.694L16.695,33.52C14.599,31.912 13.093,29.657 12.409,27.106L8.545,28.141ZM14.26,36.694C17.054,38.838 20.478,40 24,40L24,36C21.358,36 18.791,35.128 16.695,33.52L14.26,36.694Z" transform="rotate(360 24 24)" fill="#FFFFFF"/>
</svg>
