<svg width="52" height="48" viewBox="0 0 52 48" fill="none" xmlns="http://www.w3.org/2000/svg" xmlns:xlink="http://www.w3.org/1999/xlink">
<path d="M23.833,36C32.21,36 39,29.732 39,22C39,14.268 32.21,8 23.833,8C15.457,8 8.667,14.268 8.667,22C8.667,29.732 15.457,36 23.833,36ZM23.833,12C22.454,12 21.085,12.251 19.803,12.741C18.52,13.231 17.345,13.953 16.349,14.874C15.351,15.794 14.551,16.895 14.002,18.12C13.452,19.344 13.167,20.664 13.167,22C13.167,23.105 14.062,24 15.167,24C16.271,24 17.167,23.105 17.167,22C17.167,21.235 17.33,20.474 17.651,19.757C17.973,19.04 18.449,18.378 19.062,17.813C19.674,17.247 20.41,16.791 21.231,16.477C22.052,16.163 22.937,16 23.833,16C24.938,16 25.833,15.105 25.833,14C25.833,12.895 24.938,12 23.833,12Z" clip-rule="evenodd" fill-rule="evenodd" fill="#FFFFFF"/>
<path d="M41.977,41.47C42.788,42.219 44.054,42.168 44.803,41.357C45.552,40.545 45.502,39.28 44.69,38.53L41.977,41.47ZM40.357,34.53C39.545,33.781 38.28,33.832 37.53,34.643C36.781,35.455 36.832,36.72 37.643,37.47L40.357,34.53ZM44.69,38.53L40.357,34.53L37.643,37.47L41.977,41.47L44.69,38.53Z" fill="#FFFFFF"/>
</svg>
