<svg width="48" height="48" viewBox="0 0 48 48" fill="none" xmlns="http://www.w3.org/2000/svg" xmlns:xlink="http://www.w3.org/1999/xlink">
<path d="M22,36C29.732,36 36,29.732 36,22C36,14.268 29.732,8 22,8C14.268,8 8,14.268 8,22C8,29.732 14.268,36 22,36ZM22,12C20.687,12 19.386,12.259 18.173,12.761C16.96,13.264 15.858,14 14.929,14.929C14,15.858 13.264,16.96 12.761,18.173C12.259,19.386 12,20.687 12,22C12,23.105 12.895,24 14,24C15.105,24 16,23.105 16,22C16,21.212 16.155,20.432 16.457,19.704C16.758,18.976 17.2,18.315 17.757,17.757C18.315,17.2 18.976,16.758 19.704,16.457C20.432,16.155 21.212,16 22,16C23.105,16 24,15.105 24,14C24,12.895 23.105,12 22,12Z" clip-rule="evenodd" fill-rule="evenodd" fill="#939393"/>
<path d="M38.586,41.414C39.367,42.195 40.633,42.195 41.414,41.414C42.195,40.633 42.195,39.367 41.414,38.586L38.586,41.414ZM37.414,34.586C36.633,33.805 35.367,33.805 34.586,34.586C33.805,35.367 33.805,36.633 34.586,37.414L37.414,34.586ZM41.414,38.586L37.414,34.586L34.586,37.414L38.586,41.414L41.414,38.586Z" fill="#939393"/>
</svg>
