<svg width="20" height="22" viewBox="0 0 20 22" fill="none" xmlns="http://www.w3.org/2000/svg" xmlns:xlink="http://www.w3.org/1999/xlink">
<path d="M16.684,7.983L18.167,6.5C19.455,5.212 19.455,3.122 18.167,1.834C16.878,0.545 14.789,0.545 13.5,1.834L11.989,3.345C13.08,5.295 14.706,6.908 16.684,7.983ZM9.079,6.255L2.379,12.954C1.529,13.804 1.104,14.229 0.825,14.752C0.545,15.274 0.427,15.863 0.192,17.042L-0.206,19.029C-0.339,19.695 -0.405,20.027 -0.216,20.217C-0.027,20.406 0.306,20.339 0.971,20.206L0.971,20.206L2.958,19.809C4.137,19.573 4.727,19.455 5.249,19.176C5.771,18.896 6.196,18.471 7.046,17.621L13.766,10.901C11.891,9.695 10.295,8.109 9.079,6.255Z" clip-rule="evenodd" fill-rule="evenodd" fill="#939393"/>
</svg>
