<svg width="32" height="24" viewBox="0 0 32 24" fill="none" xmlns="http://www.w3.org/2000/svg" xmlns:xlink="http://www.w3.org/1999/xlink">
<path d="M-0.698,7.624C-0.75,8.845 -0.75,10.285 -0.75,12C-0.75,17.333 -0.75,20 0.826,21.72C0.944,21.849 1.068,21.972 1.196,22.09C2.917,23.667 5.583,23.667 10.917,23.667L19.083,23.667C24.417,23.667 27.083,23.667 28.804,22.09C28.932,21.972 29.056,21.849 29.174,21.72C30.75,20 30.75,17.333 30.75,12C30.75,10.285 30.75,8.845 30.698,7.624L16.871,14.94C15.7,15.559 14.3,15.559 13.129,14.94L-0.698,7.624ZM0.033,3.493C0.084,3.515 0.135,3.539 0.185,3.566L15,11.404L29.815,3.566C29.865,3.539 29.916,3.515 29.967,3.493C29.762,3.037 29.502,2.638 29.174,2.28C29.056,2.151 28.932,2.028 28.804,1.91C27.083,0.333 24.417,0.333 19.083,0.333L10.917,0.333C5.583,0.333 2.917,0.333 1.196,1.91C1.068,2.028 0.944,2.151 0.826,2.28C0.498,2.638 0.238,3.037 0.033,3.493Z" clip-rule="evenodd" fill-rule="evenodd" fill="#939393"/>
</svg>
