<svg width="40" height="40" viewBox="0 0 40 40" fill="none" xmlns="http://www.w3.org/2000/svg" xmlns:xlink="http://www.w3.org/1999/xlink">
<line x1="18.8" y1="6.667" x2="18.8" y2="10" stroke="#7E869E" stroke-opacity="0.25" stroke-width="1.2" stroke-miterlimit="3.999327" stroke-linecap="round"/>
<path d="M13.849,22.052C13.849,22.715 14.386,23.252 15.049,23.252C15.712,23.252 16.249,22.715 16.249,22.052L13.849,22.052ZM16.249,8.058C16.249,7.395 15.712,6.858 15.049,6.858C14.386,6.858 13.849,7.395 13.849,8.058L16.249,8.058ZM16.249,22.052L16.249,8.058L13.849,8.058L13.849,22.052L16.249,22.052Z" transform="rotate(-90.079 15.049 15.055)" fill="#939393"/>
<line x1="33.333" y1="18.8" x2="30" y2="18.8" stroke="#7E869E" stroke-opacity="0.25" stroke-width="1.2" stroke-miterlimit="3.999327" stroke-linecap="round"/>
<line x1="18.8" y1="30" x2="18.8" y2="33.333" stroke="#7E869E" stroke-opacity="0.25" stroke-width="1.2" stroke-miterlimit="3.999327" stroke-linecap="round"/>
<line x1="10" y1="18.8" x2="6.667" y2="18.8" stroke="#7E869E" stroke-opacity="0.25" stroke-width="1.2" stroke-miterlimit="3.999327" stroke-linecap="round"/>
<path d="M20,5C19.337,5 18.8,5.537 18.8,6.2C18.8,6.863 19.337,7.4 20,7.4L20,5ZM28.755,9.332L29.516,8.405L28.755,9.332ZM25.281,32.75L24.822,31.641L25.281,32.75ZM15.994,33.206L15.646,34.354L15.994,33.206ZM8.526,27.667L7.528,28.334L8.526,27.667ZM6.266,18.647L5.072,18.53L6.266,18.647ZM11.09,11.09C11.559,10.622 11.559,9.862 11.09,9.393C10.622,8.925 9.862,8.925 9.393,9.393L11.09,11.09ZM20,7.4C22.915,7.4 25.74,8.411 27.993,10.26L29.516,8.405C26.833,6.203 23.47,5 20,5L20,7.4ZM27.993,10.26C30.247,12.109 31.789,14.683 32.358,17.542L34.712,17.074C34.035,13.67 32.199,10.606 29.516,8.405L27.993,10.26ZM32.358,17.542C32.927,20.401 32.486,23.369 31.112,25.94L33.229,27.071C34.865,24.01 35.389,20.477 34.712,17.074L32.358,17.542ZM31.112,25.94C29.738,28.51 27.515,30.525 24.822,31.641L25.74,33.858C28.946,32.53 31.593,30.132 33.229,27.071L31.112,25.94ZM24.822,31.641C22.129,32.756 19.132,32.904 16.342,32.057L15.646,34.354C18.967,35.361 22.534,35.186 25.74,33.858L24.822,31.641ZM16.342,32.057C13.553,31.211 11.143,29.424 9.523,27L7.528,28.334C9.456,31.219 12.325,33.347 15.646,34.354L16.342,32.057ZM9.523,27C7.904,24.576 7.175,21.666 7.461,18.765L5.072,18.53C4.732,21.983 5.6,25.448 7.528,28.334L9.523,27ZM7.461,18.765C7.746,15.864 9.029,13.152 11.09,11.09L9.393,9.393C6.94,11.847 5.412,15.076 5.072,18.53L7.461,18.765Z" fill="#939393"/>
</svg>
