<svg width="58" height="56" viewBox="0 0 58 56" fill="none" xmlns="http://www.w3.org/2000/svg" xmlns:xlink="http://www.w3.org/1999/xlink">
<line x1="27.8" y1="9.333" x2="27.8" y2="14" stroke="#7E869E" stroke-opacity="0.25" stroke-width="1.2" stroke-miterlimit="3.999327" stroke-linecap="round"/>
<path d="M20.621,31.05C20.621,31.712 21.158,32.25 21.821,32.25C22.484,32.25 23.021,31.712 23.021,31.05L20.621,31.05ZM23.021,11.104C23.021,10.441 22.484,9.904 21.821,9.904C21.158,9.904 20.621,10.441 20.621,11.104L23.021,11.104ZM23.021,31.05L23.021,11.104L20.621,11.104L20.621,31.05L23.021,31.05Z" transform="rotate(-88.069 21.821 21.077)" fill="#939393"/>
<line x1="48.333" y1="26.8" x2="43.5" y2="26.8" stroke="#7E869E" stroke-opacity="0.25" stroke-width="1.2" stroke-miterlimit="3.999327" stroke-linecap="round"/>
<line x1="27.8" y1="42" x2="27.8" y2="46.667" stroke="#7E869E" stroke-opacity="0.25" stroke-width="1.2" stroke-miterlimit="3.999327" stroke-linecap="round"/>
<line x1="14.5" y1="26.8" x2="9.667" y2="26.8" stroke="#7E869E" stroke-opacity="0.25" stroke-width="1.2" stroke-miterlimit="3.999327" stroke-linecap="round"/>
<path d="M29,7C28.337,7 27.8,7.537 27.8,8.2C27.8,8.863 28.337,9.4 29,9.4L29,7ZM42.053,12.707L42.798,11.767L42.053,12.707ZM49.157,24.145L47.981,24.387L49.157,24.145ZM47.132,37.318L48.182,37.899L47.132,37.318ZM36.878,46.287L37.323,47.401L36.878,46.287ZM23.024,46.944L23.361,45.793L23.361,45.793L23.024,46.944ZM11.902,38.984L10.916,39.667L11.902,38.984ZM8.549,26.063L7.355,25.942L8.549,26.063ZM15.287,14.877C15.764,14.417 15.778,13.657 15.317,13.181C14.857,12.704 14.097,12.69 13.62,13.151L15.287,14.877ZM29,9.4C33.499,9.4 37.848,10.907 41.308,13.648L42.798,11.767C38.908,8.685 34.032,7 29,7L29,9.4ZM41.308,13.648C44.765,16.388 47.116,20.186 47.981,24.387L50.332,23.903C49.35,19.138 46.688,14.849 42.798,11.767L41.308,13.648ZM47.981,24.387C48.847,28.587 48.179,32.95 46.082,36.737L48.182,37.899C50.554,33.615 51.314,28.668 50.332,23.903L47.981,24.387ZM46.082,36.737C43.984,40.526 40.58,43.514 36.432,45.173L37.323,47.401C41.972,45.542 45.81,42.184 48.182,37.899L46.082,36.737ZM36.432,45.173C32.283,46.832 27.662,47.052 23.361,45.793L22.686,48.096C27.502,49.506 32.674,49.261 37.323,47.401L36.432,45.173ZM23.361,45.793C19.061,44.533 15.365,41.878 12.889,38.301L10.916,39.667C13.711,43.707 17.871,46.685 22.686,48.096L23.361,45.793ZM12.889,38.301C10.415,34.726 9.308,30.445 9.742,26.185L7.355,25.942C6.862,30.777 8.12,35.627 10.916,39.667L12.889,38.301ZM9.742,26.185C10.177,21.925 12.129,17.927 15.287,14.877L13.62,13.151C10.062,16.586 7.848,21.107 7.355,25.942L9.742,26.185Z" fill="#939393"/>
</svg>
