<svg width="48" height="46" viewBox="0 0 48 46" fill="none" xmlns="http://www.w3.org/2000/svg" xmlns:xlink="http://www.w3.org/1999/xlink">
<line x1="22.8" y1="7.667" x2="22.8" y2="11.5" stroke="#7E869E" stroke-opacity="0.25" stroke-width="1.2" stroke-miterlimit="3.999327" stroke-linecap="round"/>
<path d="M16.859,25.537C16.859,26.2 17.396,26.737 18.059,26.737C18.721,26.737 19.259,26.2 19.259,25.537L16.859,25.537ZM19.259,9.089C19.259,8.426 18.721,7.889 18.059,7.889C17.396,7.889 16.859,8.426 16.859,9.089L19.259,9.089ZM19.259,25.537L19.259,9.089L16.859,9.089L16.859,25.537L19.259,25.537Z" transform="rotate(-87.641 18.059 17.313)" fill="#FFFFFF"/>
<line x1="40" y1="21.8" x2="36" y2="21.8" stroke="#7E869E" stroke-opacity="0.25" stroke-width="1.2" stroke-miterlimit="3.999327" stroke-linecap="round"/>
<line x1="22.8" y1="34.5" x2="22.8" y2="38.333" stroke="#7E869E" stroke-opacity="0.25" stroke-width="1.2" stroke-miterlimit="3.999327" stroke-linecap="round"/>
<line x1="12" y1="21.8" x2="8" y2="21.8" stroke="#7E869E" stroke-opacity="0.25" stroke-width="1.2" stroke-miterlimit="3.999327" stroke-linecap="round"/>
<path d="M24,5.75C23.337,5.75 22.8,6.287 22.8,6.95C22.8,7.613 23.337,8.15 24,8.15L24,5.75ZM40.479,19.879L41.654,19.635L40.479,19.879ZM38.827,30.547L37.779,29.963L37.779,29.963L38.827,30.547ZM30.446,37.822L30.003,36.706L30.446,37.822ZM19.11,38.355L18.775,39.507L19.11,38.355ZM7.28,21.432L6.087,21.309L7.28,21.432ZM12.933,12.535C13.411,12.077 13.427,11.317 12.969,10.838C12.51,10.36 11.751,10.344 11.272,10.802L12.933,12.535ZM24,8.15C27.636,8.15 31.147,9.359 33.935,11.552L35.419,9.666C32.2,7.134 28.164,5.75 24,5.75L24,8.15ZM33.935,11.552C36.722,13.744 38.61,16.777 39.304,20.122L41.654,19.635C40.842,15.721 38.638,12.197 35.419,9.666L33.935,11.552ZM39.304,20.122C39.998,23.467 39.463,26.942 37.779,29.963L39.875,31.132C41.838,27.612 42.467,23.549 41.654,19.635L39.304,20.122ZM37.779,29.963C36.093,32.985 33.352,35.377 30.003,36.706L30.888,38.937C34.736,37.41 37.912,34.651 39.875,31.132L37.779,29.963ZM30.003,36.706C26.653,38.036 22.919,38.213 19.445,37.203L18.775,39.507C22.76,40.666 27.041,40.464 30.888,38.937L30.003,36.706ZM19.445,37.203C15.972,36.193 12.993,34.067 11.002,31.211L9.034,32.584C11.347,35.902 14.79,38.349 18.775,39.507L19.445,37.203ZM11.002,31.211C9.013,28.358 8.126,24.946 8.474,21.555L6.087,21.309C5.678,25.281 6.72,29.265 9.034,32.584L11.002,31.211ZM8.474,21.555C8.823,18.162 10.389,14.973 12.933,12.535L11.272,10.802C8.327,13.624 6.495,17.338 6.087,21.309L8.474,21.555Z" fill="#FFFFFF"/>
</svg>
