<svg width="58" height="56" viewBox="0 0 58 56" fill="none" xmlns="http://www.w3.org/2000/svg" xmlns:xlink="http://www.w3.org/1999/xlink">
<path d="M47.743,45.229C48.938,44.988 49.647,43.736 49.051,42.672C47.593,40.067 45.253,37.778 42.24,36.042C38.442,33.853 33.788,32.667 29,32.667C24.212,32.667 19.558,33.853 15.759,36.042C12.747,37.778 10.407,40.067 8.949,42.672C8.353,43.736 9.062,44.988 10.257,45.229L13.219,45.825C23.635,47.921 34.365,47.921 44.781,45.825L47.743,45.229Z" fill="#FFFFFF"/>
<path d="M41.083,18.667C41.083,25.11 35.673,30.333 29,30.333C22.327,30.333 16.917,25.11 16.917,18.667C16.917,12.223 22.327,7 29,7C35.673,7 41.083,12.223 41.083,18.667Z" fill="#FFFFFF"/>
</svg>
