<svg width="48" height="46" viewBox="0 0 48 46" fill="none" xmlns="http://www.w3.org/2000/svg" xmlns:xlink="http://www.w3.org/1999/xlink">
<path d="M39.182,37.218C40.343,36.986 41.03,35.766 40.419,34.752C39.204,32.736 37.333,30.964 34.958,29.606C31.814,27.808 27.962,26.833 24,26.833C20.038,26.833 16.186,27.808 13.042,29.606C10.667,30.964 8.796,32.736 7.581,34.752C6.969,35.766 7.657,36.986 8.818,37.218L8.818,37.218C18.84,39.219 29.159,39.219 39.182,37.218L39.182,37.218Z" fill="#939393"/>
<path d="M34,15.333C34,20.626 29.523,24.917 24,24.917C18.477,24.917 14,20.626 14,15.333C14,10.041 18.477,5.75 24,5.75C29.523,5.75 34,10.041 34,15.333Z" fill="#939393"/>
</svg>
