<svg width="48" height="48" viewBox="0 0 48 48" fill="none" xmlns="http://www.w3.org/2000/svg" xmlns:xlink="http://www.w3.org/1999/xlink">
<path d="M6,24C6,14.059 14.059,6 24,6L24,6C33.941,6 42,14.059 42,24L42,24C42,33.941 33.941,42 24,42L24,42C14.059,42 6,33.941 6,24L6,24Z" fill="#1E1E1E" fill-opacity="0.933"/>
<circle cx="24" cy="20" r="8" fill="#76ABAE"/>
<path d="M36.442,36.492C36.558,36.685 36.523,36.932 36.359,37.086C33.135,40.132 28.786,42 24,42C19.215,42 14.865,40.133 11.641,37.087C11.478,36.932 11.442,36.685 11.558,36.493C13.887,32.636 18.584,30 24,30C29.416,30 34.113,32.636 36.442,36.492Z" clip-rule="evenodd" fill-rule="evenodd" fill="#76ABAE"/>
</svg>
