<svg width="40" height="30" viewBox="0 0 40 30" fill="none" xmlns="http://www.w3.org/2000/svg" xmlns:xlink="http://www.w3.org/1999/xlink">
<path d="M35.584,0.829C37.304,1.292 38.665,2.652 39.127,4.372C39.974,7.505 40,14 40,14C40,14 40,20.521 39.153,23.628C38.691,25.348 37.33,26.709 35.61,27.171C32.503,28.018 20,28.018 20,28.018C20,28.018 7.497,28.018 4.39,27.171C2.67,26.709 1.309,25.348 0.847,23.628C0,20.496 0,14 0,14C0,14 0,7.505 0.822,4.398C1.284,2.678 2.644,1.317 4.365,0.855C7.471,0.008 19.974,-0.018 19.974,-0.018C19.974,-0.018 32.478,-0.018 35.584,0.829ZM26.367,14L15.995,20.008L15.995,7.992L26.367,14Z" clip-rule="evenodd" fill-rule="evenodd" fill="#939393"/>
</svg>
