<svg width="32" height="30" viewBox="0 0 32 30" fill="none" xmlns="http://www.w3.org/2000/svg" xmlns:xlink="http://www.w3.org/1999/xlink">
<path d="M2.667,19.333L1.253,17.919L-0.162,19.333L1.253,20.748L2.667,19.333ZM11,-1C9.896,-1 9,-0.104 9,1C9,2.105 9.896,3 11,3L11,-1ZM9.586,9.586L1.253,17.919L4.081,20.748L12.414,12.414L9.586,9.586ZM1.253,20.748L9.586,29.081L12.414,26.252L4.081,17.919L1.253,20.748ZM2.667,21.333L20.167,21.333L20.167,17.333L2.667,17.333L2.667,21.333ZM20.167,-1L11,-1L11,3L20.167,3L20.167,-1ZM31.333,10.167C31.333,4 26.334,-1 20.167,-1L20.167,3C24.125,3 27.333,6.209 27.333,10.167L31.333,10.167ZM20.167,21.333C26.334,21.333 31.333,16.334 31.333,10.167L27.333,10.167C27.333,14.125 24.125,17.333 20.167,17.333L20.167,21.333Z" transform="rotate(0 16 14.333)" fill="#EA4335"/>
</svg>
