<svg width="46" height="42" viewBox="0 0 46 42" fill="none" xmlns="http://www.w3.org/2000/svg" xmlns:xlink="http://www.w3.org/1999/xlink">
<path d="M3.667,28.667L2.277,27.228L0.787,28.667L2.277,30.105L3.667,28.667ZM15.75,1C14.645,1 13.75,1.895 13.75,3C13.75,4.104 14.645,5 15.75,5L15.75,1ZM14.361,15.561L2.277,27.228L5.056,30.105L17.139,18.439L14.361,15.561ZM2.277,30.105L14.361,41.772L17.139,38.895L5.056,27.228L2.277,30.105ZM3.667,30.667L29.5,30.667L29.5,26.667L3.667,26.667L3.667,30.667ZM29.5,1L15.75,1L15.75,5L29.5,5L29.5,1ZM44.333,15.833C44.333,7.641 37.692,1 29.5,1L29.5,5C35.483,5 40.333,9.85 40.333,15.833L44.333,15.833ZM29.5,30.667C37.692,30.667 44.333,24.026 44.333,15.833L40.333,15.833C40.333,21.816 35.483,26.667 29.5,26.667L29.5,30.667Z" transform="rotate(0 23 21.667)" fill="#EA4335"/>
</svg>
