<svg width="40" height="40" viewBox="0 0 40 40" fill="none" xmlns="http://www.w3.org/2000/svg" xmlns:xlink="http://www.w3.org/1999/xlink">
<path d="M40,20C40,31.046 31.046,40 20,40C8.954,40 0,31.046 0,20C0,8.954 8.954,0 20,0C31.046,0 40,8.954 40,20ZM20.717,14.765C18.771,15.574 14.884,17.249 9.053,19.789C8.106,20.165 7.61,20.534 7.565,20.894C7.489,21.503 8.251,21.742 9.289,22.069C9.43,22.113 9.577,22.159 9.727,22.208C10.748,22.54 12.121,22.928 12.835,22.943C13.483,22.957 14.206,22.69 15.004,22.142C20.452,18.465 23.264,16.606 23.44,16.566C23.565,16.538 23.738,16.502 23.855,16.606C23.972,16.71 23.96,16.907 23.948,16.96C23.872,17.282 20.88,20.064 19.332,21.503C18.849,21.952 18.507,22.27 18.437,22.343C18.28,22.506 18.12,22.66 17.967,22.808C17.018,23.722 16.306,24.408 18.006,25.528C18.823,26.066 19.476,26.511 20.128,26.955C20.84,27.44 21.55,27.924 22.469,28.526C22.703,28.68 22.927,28.839 23.145,28.994C23.973,29.585 24.718,30.116 25.638,30.031C26.172,29.982 26.724,29.479 27.004,27.981C27.667,24.439 28.969,16.764 29.27,13.602C29.297,13.325 29.264,12.97 29.237,12.814C29.21,12.659 29.155,12.437 28.952,12.273C28.713,12.078 28.343,12.037 28.177,12.04C27.425,12.053 26.271,12.455 20.717,14.765Z" clip-rule="evenodd" fill-rule="evenodd" fill="#939393"/>
</svg>
