<svg width="36" height="34" viewBox="0 0 36 34" fill="none" xmlns="http://www.w3.org/2000/svg" xmlns:xlink="http://www.w3.org/1999/xlink">
<path d="M2,22.923L0.614,21.481L-0.886,22.923L0.614,24.364L2,22.923ZM12,-0.231C10.895,-0.231 10,0.664 10,1.769C10,2.873 10.895,3.769 12,3.769L12,-0.231ZM10.614,11.866L0.614,21.481L3.386,24.364L13.386,14.749L10.614,11.866ZM0.614,24.364L10.614,33.98L13.386,31.096L3.386,21.481L0.614,24.364ZM2,24.923L23.423,24.923L23.423,20.923L2,20.923L2,24.923ZM23.423,-0.231L12,-0.231L12,3.769L23.423,3.769L23.423,-0.231ZM36,12.346C36,5.4 30.369,-0.231 23.423,-0.231L23.423,3.769C28.16,3.769 32,7.609 32,12.346L36,12.346ZM23.423,24.923C30.369,24.923 36,19.292 36,12.346L32,12.346C32,17.083 28.16,20.923 23.423,20.923L23.423,24.923Z" transform="rotate(0 18 17.153)" fill="#EA4335"/>
</svg>
