<svg width="14" height="12" viewBox="0 0 14 12" fill="none" xmlns="http://www.w3.org/2000/svg" xmlns:xlink="http://www.w3.org/1999/xlink">
<path d="M2,0C0.895,0 0,0.895 0,2C0,3.105 0.895,4 2,4L2,0ZM9.489,7.672L11.306,6.836L9.489,7.672ZM12.383,9.931L12.013,11.896L12.383,9.931ZM7.903,2.638L9.368,1.276L7.903,2.638ZM2,4L5.251,4L5.251,0L2,0L2,4ZM6.726,5.152L7.09,6.604L10.97,5.634L10.607,4.182L6.726,5.152ZM7.09,6.604C7.271,7.331 7.419,7.957 7.672,8.507L11.306,6.836C11.247,6.708 11.193,6.525 10.97,5.634L7.09,6.604ZM14,8C13.082,8 12.892,7.992 12.753,7.965L12.013,11.896C12.608,12.008 13.251,12 14,12L14,8ZM7.672,8.507C8.484,10.273 10.102,11.537 12.013,11.896L12.753,7.965C12.116,7.846 11.577,7.424 11.306,6.836L7.672,8.507ZM5.251,4C5.855,4 6.174,4.002 6.402,4.023C6.595,4.04 6.547,4.06 6.438,4L8.37,0.497C7.811,0.189 7.253,0.084 6.766,0.039C6.314,-0.002 5.782,0 5.251,0L5.251,4ZM10.607,4.182C10.478,3.667 10.351,3.15 10.201,2.721C10.04,2.26 9.803,1.744 9.368,1.276L6.438,4C6.354,3.909 6.361,3.858 6.425,4.041C6.501,4.257 6.58,4.566 6.726,5.152L10.607,4.182ZM6.438,4L6.438,4L9.368,1.276C9.079,0.965 8.742,0.702 8.37,0.497L6.438,4Z" fill="#939393"/>
</svg>
