<svg width="46" height="40" viewBox="0 0 46 40" fill="none" xmlns="http://www.w3.org/2000/svg" xmlns:xlink="http://www.w3.org/1999/xlink">
<path d="M3.667,26.667L2.277,25.228L0.787,26.667L2.277,28.106L3.667,26.667ZM15.75,-1C14.645,-1 13.75,-0.104 13.75,1C13.75,2.105 14.645,3 15.75,3L15.75,-1ZM14.361,13.561L2.277,25.228L5.056,28.106L17.139,16.439L14.361,13.561ZM2.277,28.106L14.361,39.772L17.139,36.895L5.056,25.228L2.277,28.106ZM3.667,28.667L29.5,28.667L29.5,24.667L3.667,24.667L3.667,28.667ZM29.5,-1L15.75,-1L15.75,3L29.5,3L29.5,-1ZM44.333,13.834C44.333,5.641 37.692,-1 29.5,-1L29.5,3C35.483,3 40.333,7.85 40.333,13.834L44.333,13.834ZM29.5,28.667C37.692,28.667 44.333,22.026 44.333,13.834L40.333,13.834C40.333,19.817 35.483,24.667 29.5,24.667L29.5,28.667Z" transform="rotate(0 23 19.667)" fill="#EA4335"/>
</svg>
