<svg width="14" height="12" viewBox="0 0 14 12" fill="none" xmlns="http://www.w3.org/2000/svg" xmlns:xlink="http://www.w3.org/1999/xlink">
<path d="M2.667,0.667C1.562,0.667 0.667,1.562 0.667,2.667C0.667,3.771 1.562,4.667 2.667,4.667L2.667,0.667ZM8.525,6.1L6.585,6.585L8.525,6.1ZM8.623,6.476L6.706,7.047L8.623,6.476ZM12.278,9.329L12.189,11.327L12.278,9.329ZM6.714,2.762L6.105,4.667L6.714,2.762ZM8.222,4.889L6.282,5.374L8.222,4.889ZM7.806,3.614L9.506,2.561L7.806,3.614ZM2.667,4.667L5.376,4.667L5.376,0.667L2.667,0.667L2.667,4.667ZM6.282,5.374L6.585,6.585L10.465,5.615L10.163,4.404L6.282,5.374ZM6.585,6.585C6.628,6.759 6.665,6.908 6.706,7.047L10.54,5.905C10.53,5.872 10.519,5.828 10.465,5.615L6.585,6.585ZM12.667,7.333C12.447,7.333 12.401,7.333 12.367,7.331L12.189,11.327C12.334,11.334 12.487,11.333 12.667,11.333L12.667,7.333ZM6.706,7.047C7.436,9.496 9.636,11.213 12.189,11.327L12.367,7.331C11.516,7.293 10.783,6.721 10.54,5.905L6.706,7.047ZM5.376,4.667C5.745,4.667 5.94,4.667 6.081,4.675C6.204,4.682 6.18,4.691 6.105,4.667L7.324,0.857C6.657,0.644 5.928,0.667 5.376,0.667L5.376,4.667ZM10.163,4.404C10.029,3.869 9.875,3.156 9.506,2.561L6.105,4.667C6.064,4.6 6.066,4.574 6.103,4.692C6.145,4.827 6.192,5.016 6.282,5.374L10.163,4.404ZM6.105,4.667L6.105,4.667L9.506,2.561C9.004,1.751 8.231,1.147 7.324,0.857L6.105,4.667Z" fill="#939393"/>
</svg>
