<svg width="32" height="28" viewBox="0 0 32 28" fill="none" xmlns="http://www.w3.org/2000/svg" xmlns:xlink="http://www.w3.org/1999/xlink">
<path d="M3.418,15.18L15.006,26.066C15.296,26.339 15.441,26.475 15.599,26.544C15.855,26.656 16.146,26.656 16.401,26.544C16.559,26.475 16.704,26.339 16.995,26.066L28.582,15.18C31.843,12.118 32.239,7.078 29.496,3.544L28.981,2.879C25.701,-1.349 19.116,-0.64 16.811,4.19C16.486,4.872 15.515,4.872 15.189,4.19C12.884,-0.64 6.3,-1.349 3.019,2.879L2.504,3.544C-0.238,7.078 0.158,12.118 3.418,15.18Z" fill="#939393" stroke="#939393" stroke-width="2" stroke-miterlimit="3.999327"/>
</svg>
