<svg width="36" height="36" viewBox="0 0 36 36" fill="none" xmlns="http://www.w3.org/2000/svg" xmlns:xlink="http://www.w3.org/1999/xlink">
<path d="M18.075,0.581C8.195,0.581 0.154,8.325 0.151,17.843C0.149,20.887 0.975,23.858 2.543,26.474L0,35.419L9.503,33.019C12.146,34.402 15.085,35.123 18.069,35.121L18.075,35.121C27.956,35.121 35.997,27.375 36,17.857C36.002,13.247 34.14,8.907 30.754,5.645C27.37,2.382 22.87,0.582 18.075,0.581ZM18.075,32.205L18.07,32.205C15.396,32.205 12.774,31.513 10.486,30.205L9.941,29.894L4.304,31.318L5.809,26.022L5.455,25.48C3.967,23.211 3.175,20.556 3.176,17.843C3.18,9.931 9.864,3.497 18.081,3.497C22.06,3.498 25.8,4.992 28.614,7.704C31.428,10.416 32.976,14.021 32.974,17.856C32.97,25.768 26.287,32.205 18.074,32.205L18.075,32.205ZM26.247,21.457C25.799,21.242 23.597,20.198 23.186,20.053C22.776,19.91 22.478,19.836 22.179,20.268C21.882,20.7 21.023,21.672 20.763,21.959C20.5,22.247 20.239,22.282 19.791,22.067C19.342,21.851 17.899,21.396 16.19,19.925C14.858,18.783 13.959,17.371 13.697,16.937C13.436,16.507 13.67,16.273 13.894,16.058C14.095,15.867 14.342,15.555 14.565,15.303C14.788,15.051 14.862,14.871 15.013,14.583C15.162,14.297 15.087,14.043 14.975,13.829C14.862,13.611 13.968,11.489 13.593,10.626C13.231,9.785 12.861,9.898 12.586,9.884C12.325,9.872 12.027,9.869 11.727,9.869C11.431,9.869 10.944,9.977 10.533,10.409C10.123,10.841 8.965,11.883 8.965,14.006C8.965,16.13 10.57,18.181 10.794,18.469C11.018,18.756 13.953,23.114 18.446,24.984C19.514,25.426 20.348,25.692 21,25.892C22.073,26.221 23.049,26.173 23.82,26.063C24.68,25.939 26.47,25.02 26.842,24.013C27.216,23.006 27.216,22.142 27.105,21.962C26.995,21.782 26.696,21.674 26.247,21.457L26.247,21.457Z" fill="#939393"/>
</svg>
