<svg width="46" height="42" viewBox="0 0 46 42" fill="none" xmlns="http://www.w3.org/2000/svg" xmlns:xlink="http://www.w3.org/1999/xlink">
<path d="M3.667,28.666L2.277,27.227L0.787,28.666L2.277,30.105L3.667,28.666ZM15.75,1C14.645,1 13.75,1.895 13.75,3C13.75,4.104 14.645,5 15.75,5L15.75,1ZM14.361,15.561L2.277,27.227L5.056,30.105L17.139,18.438L14.361,15.561ZM2.277,30.105L14.361,41.772L17.139,38.894L5.056,27.227L2.277,30.105ZM3.667,30.666L29.5,30.666L29.5,26.666L3.667,26.666L3.667,30.666ZM29.5,1L15.75,1L15.75,5L29.5,5L29.5,1ZM44.333,15.833C44.333,7.641 37.692,1 29.5,1L29.5,5C35.483,5 40.333,9.85 40.333,15.833L44.333,15.833ZM29.5,30.666C37.692,30.666 44.333,24.025 44.333,15.833L40.333,15.833C40.333,21.816 35.483,26.666 29.5,26.666L29.5,30.666Z" transform="rotate(0 23 21.666)" fill="#EA4335"/>
</svg>
