<svg width="40" height="40" viewBox="0 0 40 40" fill="none" xmlns="http://www.w3.org/2000/svg" xmlns:xlink="http://www.w3.org/1999/xlink">
<path d="M40,20.121C40,9.008 31.047,0 20,0C8.953,0 0,9.008 0,20.121C0,30.167 7.312,38.491 16.875,40L16.875,25.939L11.797,25.939L11.797,20.12L16.875,20.12L16.875,15.688C16.875,10.645 19.86,7.859 24.429,7.859C26.616,7.859 28.907,8.252 28.907,8.252L28.907,13.204L26.383,13.204C23.899,13.204 23.125,14.756 23.125,16.348L23.125,20.121L28.672,20.121L27.785,25.937L23.125,25.937L23.125,40C32.688,38.491 40,30.167 40,20.121Z" fill="#939393"/>
</svg>
